<mxfile host="app.diagrams.net" modified="2023-05-30T03:51:41.858Z" agent="Mozilla/5.0 (Windows NT 10.0; Win64; x64) AppleWebKit/537.36 (KHTML, like Gecko) Chrome/113.0.0.0 Safari/537.36" version="21.3.5" etag="2w2MJwiHzS_f267n0_gB" type="github">
  <diagram name="PÃ¡gina-1" id="cSMnIz5DItPFE8BZ3LtE">
    <mxGraphModel>
      <root>
        <mxCell id="0" />
        <mxCell id="1" parent="0" />
      </root>
    </mxGraphModel>
  </diagram>
</mxfile>
